<svg width="180" height="107" viewBox="0 0 180 107" fill="none" xmlns="http://www.w3.org/2000/svg">
<g clip-path="url(#clip0_139_203)">
<g filter="url(#filter0_d_139_203)">
<path d="M48.2166 49.1736C44.4781 52.9229 41.7965 50.9094 41.8925 48.5922C44.5829 48.2971 46.7754 46.2402 47.8235 43.7755C49.6579 39.4708 45.9892 38.655 44.347 39.6357C41.2025 41.519 39.9185 44.869 39.7263 48.8525C35.3676 52.055 31.2796 51.2305 30.8429 45.0773C30.5983 41.7186 31.0176 37.7872 36.2498 32.5886C38.3898 30.4536 39.4031 32.2328 37.298 36.2337C36.6865 37.4053 37.8396 38.4554 39.0188 36.737C41.1151 33.6648 41.9013 30.6619 40.2242 29.2213C37.9182 27.6938 32.0134 29.5597 28.7902 37.683C24.7809 47.8024 31.1049 58.3297 40.1805 50.3106C41.2636 54.1205 45.9543 53.973 48.732 50.8226C49.7103 49.703 49.9461 47.4292 48.2166 49.165V49.1736ZM45.0371 41.3281C46.7491 40.1738 46.5919 41.6058 46.1988 42.6125C45.5699 44.2094 44.6178 45.5807 42.8796 46.6481C40.2329 48.3058 43.6483 42.248 45.0371 41.3281Z" fill="#F0F3F2"/>
<path d="M69.949 42.4129C70.0451 37.9173 70.7002 33.6214 71.8707 29.5163C72.5084 27.2772 71.9755 26.3312 70.5954 27.2599C67.6867 29.6465 68.3593 38.0649 68.0972 44.9731C67.3373 47.7243 59.7554 52.8447 60.987 48.9653C61.5897 47.0734 63.8521 45.2508 64.1141 40.6772C64.2451 38.3252 62.1138 37.1796 59.9738 39.0542C57.2747 41.4235 57.1087 46.084 58.0608 49.677C55.4316 51.6905 52.9335 50.9528 52.1648 48.0628C50.1994 40.6945 54.2 33.604 55.6937 31.7294C56.969 30.1238 58.2355 30.2367 57.6241 32.7274C56.9253 35.5654 55.6762 38.143 53.6934 40.8594C52.7675 42.1265 54.3136 43.1419 55.5627 41.5884C58.2181 38.3079 59.1876 35.6261 59.8777 32.2675C60.7861 27.7979 57.0563 27.2772 55.2657 28.6832C49.1949 33.4565 44.4257 58.1474 59.2226 51.3954C61.843 54.3895 65.1885 51.9074 67.9051 48.2624L67.8701 51.4735C67.8439 53.4349 70.0189 53.1745 69.9665 51.4822C69.7743 45.8323 70.8487 44.2007 72.7617 42.977C76.5264 40.5643 76.0372 46.6481 71.7047 50.0589C70.1674 51.2739 71.1457 52.8187 72.7355 51.569C74.9279 49.8506 76.7972 48.0628 77.7406 45.8236C80.5357 39.2278 73.2858 37.1449 69.949 42.4042V42.4129ZM59.3973 48.245C57.8512 42.8816 63.5027 36.3552 62.0265 42.6212C61.581 44.4871 60.7337 46.1882 59.3973 48.245Z" fill="#F0F3F2"/>
<path d="M151.577 38.7852C150.406 37.7785 148.537 37.5702 147.052 38.3166C145.576 39.063 144.405 41.519 144.676 43.2374C144.37 44.2181 143.942 45.1554 143.383 46.0146C142.868 46.8131 142.204 47.8892 141.278 48.2537C139.522 48.9307 139.156 47.1515 139.173 45.7716C139.208 42.2307 137.391 39.9395 134.22 42.8208C134.378 39.3667 132.797 38.8026 129.984 41.2413C127.294 43.3155 125.433 42.0918 122.489 40.9376C121.371 40.5036 121.022 41.5017 121.817 42.3088C123.983 44.4698 123.756 46.5614 122.751 48.2537C121.293 50.6838 117.991 50.0242 118.602 46.7263C118.917 45.0339 119.581 43.923 120.21 42.3175C121.153 39.9135 118.864 38.9762 117.816 40.7813C116.655 42.7774 116.008 44.9385 115.833 47.1602C114.96 48.2537 114.217 48.9393 113.615 49.3125C112.733 49.8593 112.13 49.7118 111.798 49.165C111.414 47.7938 111.964 44.9992 113.213 42.9163C115.432 39.2279 110.322 39.0456 109.789 46.8131C109.763 46.8651 109.745 46.9085 109.719 46.9693C108.636 49.868 106.505 50.84 105.02 49.3646C102.434 46.7957 103.596 40.0784 104.513 37.6223C106.356 37.0148 107.937 36.6503 109.71 36.8672C111.265 37.0495 111.798 35.5307 110.103 35.1662C108.051 34.7149 106.653 34.8191 105.36 34.9145C105.928 32.6667 106.374 31.0438 107.413 29.1692C108.732 26.7912 107.151 26.4701 106.295 27.8848C104.565 30.7314 103.945 32.5713 103.229 35.4092C100.478 36.0341 99.8399 36.0948 97.9182 36.954C95.8218 37.8913 97.0534 39.9829 99.4118 39.115C100.827 38.5943 100.871 38.6464 102.495 38.0736C101.482 41.1198 100.416 45.6588 101.561 48.7484C101.587 48.8178 101.613 48.8873 101.639 48.9567C96.3983 51.6818 95.5073 48.3405 96.2673 45.2075C96.9486 42.4563 95.3152 42.2047 94.2845 43.9925C93.7342 44.9384 89.192 50.7619 89.6288 47.5334C89.8384 45.9539 91.2797 43.897 92.8956 42.9423C93.5158 42.5778 94.9308 41.3889 93.7516 40.7987C92.092 39.9742 90.0742 41.4062 90.0742 41.4062C90.0742 41.4062 89.7161 41.1806 89.5938 41.0504C88.7815 40.1652 87.4625 39.4795 86.2396 39.575C84.4577 39.7052 83.0427 41.5104 82.3089 42.9597C82.143 43.2808 81.7936 43.7668 81.8634 44.1487C81.7237 43.3763 81.9857 42.3956 81.9595 41.7968C81.8722 39.2018 79.3478 38.9762 79.5836 41.1979C79.8107 43.4197 79.933 47.0387 79.671 50.7011C79.5662 52.0724 81.0336 52.3067 81.4878 50.8921C82.0207 49.2344 81.9508 48.3232 82.7631 46.1274C83.4794 44.1747 85.6981 41.4236 88.5194 42.5692C88.7465 42.6646 88.8164 42.6733 88.633 42.8208C87.3402 43.871 86.0387 47.3685 87.0694 49.5469C88.0041 51.5256 91.2185 51.595 94.2146 48.0454C94.7736 53.704 98.879 52.9489 102.233 50.354C102.871 51.6037 103.753 52.6191 105.282 52.8882C107.553 53.2787 108.907 51.6731 109.754 50.163C109.841 50.3453 109.946 50.5276 110.068 50.6838C110.601 51.8641 111.772 52.4889 113.196 51.8207C113.196 51.8207 113.213 51.8207 113.222 51.8207C114.27 51.5169 114.986 50.7879 116.165 49.0608C118.664 55.3356 126.813 51.9943 125.512 44.4872C125.66 44.5479 125.809 44.6087 125.948 44.6694C125.948 44.6694 125.948 44.6868 125.957 44.6868C126.062 44.7302 126.167 44.7649 126.28 44.7996C126.604 44.9211 126.927 44.9992 127.329 44.9818C128.211 45.0166 129.242 44.7562 130.36 43.9057C131.582 42.9771 132.054 42.9684 131.644 44.8256C131.373 46.0754 131.015 47.3077 130.639 48.5228C130.045 50.406 131.722 51.2913 132.561 49.6857C133.373 48.1235 133.897 46.6568 135.199 45.2248C136.282 44.0272 137.129 44.2702 136.937 45.7195C136.675 47.6549 137.19 50.3193 138.832 51.2305C140.379 52.081 141.724 50.9528 142.685 49.8072C143.523 48.8092 144.947 46.0927 145.453 44.8256C146.554 46.058 148.415 46.9432 148.607 48.1843C148.729 48.9567 148.214 49.6163 147.41 49.6336C147.061 49.6423 146.921 49.5121 146.606 49.382C146.266 49.2344 145.777 48.7658 145.366 48.9654C145.209 49.0435 145.095 49.2171 145.034 49.3906C144.816 50.0068 144.886 50.5623 145.113 51.1177C145.471 51.9769 146.344 52.3761 147.2 52.5497C149.183 52.9489 151.131 51.326 151.201 49.0001C151.227 48.1669 151.096 47.464 150.415 46.518C149.847 45.7369 146.982 44.0185 147.323 42.3348C147.524 41.3455 148.476 40.7032 149.297 40.4949C150.301 40.2433 150.956 40.6772 151.28 41.5798C151.559 42.3695 152.267 42.2394 152.389 41.2847C152.406 41.1372 152.415 40.9896 152.415 40.8421C152.415 40.0263 152.101 39.2973 151.559 38.8373L151.577 38.7852Z" fill="#F0F3F2"/>
<path d="M113.781 39.5924C114.68 40.0957 115.519 38.9415 115.633 38.1777C115.676 37.9087 115.624 37.6136 115.458 37.3966C115.152 36.9974 114.523 36.9453 114.095 37.197C113.833 37.3532 113.632 37.5962 113.501 37.874C113.414 38.0475 113.361 38.2472 113.327 38.4381C113.257 38.8547 113.396 39.3754 113.789 39.5924H113.781Z" fill="#F0F3F2"/>
<path d="M114.034 16.29C113.58 16.2205 113.37 16.7066 112.619 17.7827C111.938 18.7634 110.54 20.4124 109.937 20.0826C109.317 19.7528 109.728 18.4597 110.13 17.5571C110.374 17.0016 110.531 16.3941 110.217 16.342C109.894 16.2639 109.361 17.0016 109.011 17.8955C108.321 19.2407 107.09 20.5512 106.426 20.5599C106.059 20.5599 105.928 20.395 105.919 20.0739C105.902 18.8328 107.186 17.5571 107.177 16.8801C107.177 16.6632 107.081 16.4809 106.898 16.4896C106.566 16.4896 106.251 16.993 105.456 17.0103C105.203 17.0103 104.95 16.9582 104.74 16.8888C104.915 16.1945 104.897 15.561 104.338 15.561C103.875 15.561 103.543 15.9515 103.552 16.6198C103.552 16.9582 103.736 17.2446 103.98 17.4529C103.491 19.0064 102.417 20.5599 101.526 20.4211C101.15 20.3603 100.853 19.7354 101.002 18.9977C101.639 18.3034 102.434 17.0971 102.067 16.6892C101.543 16.099 100.277 17.8782 100.049 19.1887C99.473 20.0392 98.7392 20.6727 98.1715 20.5078C97.892 20.421 97.7959 20.1867 97.7959 19.8656C97.8221 18.8502 98.3549 18.234 98.7392 17.6873C99.0188 17.288 99.3507 16.6718 99.0188 16.5069C98.748 16.3768 98.3112 16.5851 98.0142 16.9756C98.0055 16.9843 97.9968 17.0016 97.988 17.019C97.4639 17.6091 96.5555 18.1299 95.5685 18.451C95.5859 18.3208 95.5859 18.1993 95.5859 18.0778C95.5685 16.9062 94.957 16.0643 94.0311 15.6911C94.6426 14.5889 95.3588 13.5215 96.0402 12.6709C97.1233 12.2978 97.5076 11.5167 97.4989 11.2042C97.4989 10.996 97.3941 10.8484 97.1844 10.8571C96.7127 10.8571 95.8305 11.6208 95.1492 12.3238C94.66 12.4019 94.1709 12.4366 93.6206 12.4453C91.2884 12.4713 89.8821 11.4559 89.1047 11.4646C88.7465 11.4646 88.5893 11.725 88.598 11.968C88.598 12.454 89.1571 13.209 89.1745 14.7365C89.1745 15.3093 89.0959 15.9602 88.9474 16.6284C88.6854 16.1685 88.2137 15.9515 87.6023 15.9602C86.3182 15.9775 85.2176 17.262 84.7372 18.6853C84.1956 19.8135 83.5929 20.8463 82.9116 20.855C82.5447 20.855 82.37 20.5946 82.3613 20.0999C82.3526 18.9717 83.1649 17.4963 83.1562 16.6458C83.1562 15.9168 82.7282 15.4568 81.7935 15.4655C80.7803 15.4742 79.3565 16.6024 78.3782 17.965C76.2644 20.5078 73.3032 22.1047 70.543 22.044C68.4292 22.0179 66.8656 20.5946 66.8394 18.4683C66.7608 13.5301 71.4427 8.57459 76.6836 8.52252C78.3782 8.50516 79.5312 9.36435 79.5749 11.1782C79.6098 14.5022 76.011 16.9062 73.6002 16.9322C72.4909 16.9409 71.8096 16.2639 71.8008 15.2138C71.7834 13.426 73.5129 11.9506 75.5219 11.1956C75.7403 11.1435 75.7927 10.9005 75.3734 10.9005C73.2858 11.022 70.6303 13.3479 70.6566 15.5436C70.674 17.1318 71.9231 17.8088 73.3032 17.7914C76.4478 17.7567 80.7803 14.4848 80.7454 11.022C80.7279 9.38171 79.6972 7.8369 76.9631 7.86293C70.543 7.93236 65.1099 13.8513 65.1623 18.6159C65.206 22.6688 68.7785 23.1722 70.3072 23.1548C73.1635 23.1201 75.8888 21.5059 77.4348 19.8656C77.3475 20.178 77.2951 20.4818 77.2951 20.7769C77.3038 21.584 77.7318 22.1134 78.4918 22.1047C79.4002 22.096 80.5008 21.1761 81.2695 20.1173C81.1559 20.855 81.4354 21.9485 82.3963 21.9398C83.2261 21.9311 83.9598 21.0546 84.4926 20.1867C84.4926 20.1867 84.4926 20.1867 84.4926 20.1954C84.5014 21.0633 85.0691 21.853 85.9776 21.8444C88.5369 21.8183 90.1965 17.5918 90.1616 14.2244C90.1616 13.6777 90.1092 13.1656 90.0131 12.7143C91.1661 13.0094 92.389 13.1136 93.4284 13.0962C93.8302 13.0962 94.1971 13.0702 94.529 13.0355C94.0137 13.669 93.4721 14.5369 92.9829 15.4655C92.9218 15.4655 92.8519 15.4655 92.7908 15.4655C91.6465 15.4742 90.7468 16.2813 90.7556 17.2707C90.7556 17.8955 91.1137 18.3729 91.6378 18.72C91.4805 19.2928 91.3845 19.8135 91.3932 20.2388C91.4019 21.2195 91.8911 21.8183 92.7384 21.8096C93.9263 21.7923 95.0531 20.4818 95.4462 19.1106C96.11 18.9196 96.6953 18.6246 97.1844 18.3034C96.9137 18.8328 96.7302 19.397 96.7215 19.9611C96.704 20.5512 96.9486 21.4017 97.8046 21.4278C98.4685 21.4451 99.2983 21.0893 100.067 20.126C100.189 20.7769 100.574 21.124 101.08 21.2195C102.591 21.4885 103.84 19.7354 104.461 17.7567C104.653 17.8348 104.862 17.8695 105.046 17.8695C105.264 17.8695 105.474 17.8348 105.666 17.7914C105.177 18.5551 104.758 19.5966 104.766 20.3777C104.775 21.2542 105.29 21.4972 105.884 21.4799C106.915 21.4451 107.876 20.5165 108.653 19.4056C108.653 19.449 108.653 19.4924 108.653 19.5271C108.653 20.2388 108.819 21.1327 109.553 21.2195C110.164 21.2889 110.881 20.8637 111.859 19.7528C112.042 19.5532 112.121 19.6226 111.99 19.8916C111.239 21.367 110.025 23.5975 110.007 24.8819C110.007 25.3159 110.173 25.6109 110.496 25.7064C110.689 25.7585 110.863 25.7324 110.898 25.6283C110.942 25.5241 110.881 25.3506 110.881 25.0989C110.872 23.9793 111.562 22.2523 113.772 18.0257C114.086 17.4356 114.471 16.4028 114.008 16.3247L114.034 16.29ZM79.0595 20.9505C78.7625 20.9505 78.5442 20.7856 78.5354 20.395C78.518 19.1453 80.6755 16.073 81.7586 16.0557C82.0818 16.0557 82.1779 16.2205 82.1866 16.5417C82.2041 17.8088 80.1426 20.9331 79.0683 20.9505H79.0595ZM86.2134 20.9938C85.7592 20.9938 85.5496 20.5426 85.5496 19.9958C85.5321 18.6159 86.5541 16.7673 87.7769 16.7586C88.1351 16.7586 88.5631 16.9148 88.7815 17.4009C88.2224 19.2581 87.2179 20.9765 86.2221 20.9938H86.2134ZM94.6338 17.991C94.6338 18.208 94.6076 18.4423 94.5552 18.6766C94.2932 18.72 94.0399 18.7461 93.7866 18.7461C93.411 18.7461 93.0441 18.7027 92.7209 18.5985C92.948 17.8869 93.2974 17.1058 93.6992 16.3247C94.2495 16.6545 94.6164 17.2446 94.6251 17.991H94.6338ZM91.5242 17.2533C91.5242 16.6458 92.0046 16.0557 92.6598 16.0557C92.6685 16.0557 92.6772 16.0557 92.686 16.0557C92.354 16.7326 92.0658 17.4269 91.8474 18.0691C91.6465 17.8521 91.5242 17.5744 91.5242 17.2533ZM92.8607 21.0025C92.4763 21.0025 92.4152 20.638 92.4064 20.2909C92.4064 19.9437 92.4676 19.5445 92.5811 19.1019C93.0441 19.2407 93.5595 19.3015 94.0573 19.3015C94.1709 19.3015 94.2757 19.3015 94.3805 19.2841C94.0573 20.1867 93.4546 21.0025 92.8519 21.0112L92.8607 21.0025Z" fill="#F0F3F2"/>
</g>
<path d="M174.418 107H5.51172C5.12738 107 4.82166 106.688 4.82166 106.314C4.82166 104.041 2.96986 102.192 0.690057 102.175C0.305721 102.175 0 101.862 0 101.489V94.5981C0 94.2162 0.305721 93.9125 0.690057 93.9125C2.96986 93.8951 4.82166 92.0466 4.82166 89.7814C4.82166 87.5163 2.96986 85.6677 0.690057 85.6503C0.305721 85.6503 0 85.3379 0 84.9647V77.9002C0 77.5184 0.305721 77.2146 0.690057 77.2146C2.95239 77.1973 4.81293 75.3574 4.82166 73.1009C4.82166 72.719 5.13612 72.4153 5.51172 72.4153H174.418C174.803 72.4153 175.108 72.719 175.108 73.1009C175.117 75.3661 176.986 77.2146 179.266 77.2146H179.301C179.686 77.2146 179.991 77.5271 179.991 77.9002V84.9647C179.991 85.1643 179.904 85.3553 179.747 85.4941C179.607 85.6069 179.432 85.6677 179.249 85.659C176.96 85.6677 175.108 87.5163 175.108 89.7901C175.108 92.0639 176.978 93.9212 179.266 93.9212H179.301C179.686 93.9212 179.991 94.2336 179.991 94.6068V101.498C179.991 101.697 179.904 101.888 179.747 102.027C179.607 102.14 179.432 102.201 179.249 102.192C176.96 102.201 175.108 104.049 175.108 106.323C175.108 106.705 174.794 107.017 174.418 107.017V107ZM6.16684 105.629H173.772C174.086 103.121 176.095 101.142 178.611 100.838V95.249C175.868 94.9279 173.728 92.5933 173.728 89.7814C173.728 86.9695 175.868 84.6349 178.611 84.3138V78.5511C176.104 78.2474 174.104 76.2773 173.772 73.7952H6.1581C5.83491 76.2513 3.86082 78.2213 1.38011 78.5425V84.3225C4.09667 84.6783 6.20178 86.9955 6.20178 89.7814C6.20178 92.5673 4.09667 94.8845 1.38011 95.2403V100.847C3.86956 101.168 5.85238 103.147 6.1581 105.629H6.16684Z" fill="white"/>
<path d="M36.5992 87.1344L30.7032 92.9926L27.5761 89.8856L29.1658 88.306L30.6944 89.8335L35.1405 85.416C34.1797 84.6697 32.9393 84.2357 31.5417 84.2357C28.2749 84.2357 25.8291 86.6831 25.8291 89.7033V89.7294C25.8291 92.7495 28.2487 95.1622 31.5155 95.1622C34.7824 95.1622 37.2281 92.7148 37.2281 89.6946V89.6599C37.2281 88.74 37.001 87.8808 36.5992 87.1257V87.1344Z" fill="white"/>
<path d="M14.1942 89.7294V89.7033C14.1942 86.6397 16.5701 84.2357 19.7758 84.2357C21.9333 84.2357 23.3309 85.1383 24.2655 86.4314L22.0556 88.1325C21.4529 87.3861 20.7541 86.9001 19.7409 86.9001C18.2559 86.9001 17.2165 88.1498 17.2165 89.6773V89.7033C17.2165 91.2828 18.2559 92.5152 19.7409 92.5152C20.8415 92.5152 21.4966 92.0032 22.1255 91.2394L24.3354 92.8016C23.3397 94.1729 21.9945 95.1709 19.6535 95.1709C16.6312 95.1709 14.1942 92.8711 14.1942 89.738V89.7294Z" fill="white"/>
<path d="M39.6652 84.444H42.3992L46.7492 89.9984V84.444H49.6491V94.954H47.0811L42.5651 89.1826V94.954H39.6652V84.444Z" fill="white"/>
<path d="M52.4356 84.444H60.8997V86.9956H55.3705V88.7834H60.3756V91.2048H55.3705V94.9626H52.4356V84.4527V84.444Z" fill="white"/>
<path d="M63.197 84.444H66.1406V94.954H63.197V84.444Z" fill="white"/>
<path d="M68.9882 84.444H73.9933C75.6093 84.444 76.7273 84.8606 77.4436 85.5896C78.0638 86.1885 78.3782 87.0043 78.3782 88.037V88.0631C78.3782 89.6686 77.5135 90.7361 76.2032 91.2915L78.7276 94.954H75.3385L73.2072 91.7689H71.9231V94.954H68.9882V84.444ZM73.8536 89.4864C74.8493 89.4864 75.4258 89.009 75.4258 88.2366V88.2106C75.4258 87.3861 74.8231 86.9609 73.8361 86.9609H71.9144V89.4864H73.8536Z" fill="white"/>
<path d="M80.7628 84.444H83.8637L86.3881 88.5143L88.9125 84.444H92.0134V94.9539H89.0959V88.9135L86.3881 93.0272H86.327L83.6366 88.9396V94.9452H80.7628V84.4353V84.444Z" fill="white"/>
<path d="M94.7911 84.444H103.299V86.9174H97.6911V88.5056H102.766V90.8055H97.6911V92.4718H103.377V94.9452H94.7911V84.4353V84.444Z" fill="white"/>
<path d="M105.78 84.444H109.859C113.641 84.444 115.833 86.605 115.833 89.6426V89.6686C115.833 92.7062 113.615 94.954 109.798 94.954H105.78V84.444ZM109.902 92.3764C111.658 92.3764 112.82 91.413 112.82 89.7207V89.6947C112.82 88.011 111.658 87.039 109.902 87.039H108.706V92.3851H109.902V92.3764Z" fill="white"/>
<path d="M122.542 93.4005L124.175 91.4651C125.215 92.2896 126.385 92.7235 127.608 92.7235C128.394 92.7235 128.814 92.4545 128.814 92.0032V91.9772C128.814 91.5432 128.464 91.3002 127.032 90.9704C124.778 90.4584 123.04 89.8248 123.04 87.6638V87.6378C123.04 85.6851 124.595 84.2704 127.136 84.2704C128.936 84.2704 130.342 84.7478 131.486 85.6677L130.019 87.7246C129.049 87.0476 127.992 86.6918 127.058 86.6918C126.35 86.6918 126.001 86.9956 126.001 87.3688V87.3948C126.001 87.8721 126.359 88.0891 127.826 88.4189C130.263 88.9483 131.775 89.7294 131.775 91.6908V91.7168C131.775 93.8604 130.063 95.1449 127.495 95.1449C125.617 95.1449 123.835 94.5634 122.533 93.4005H122.542Z" fill="white"/>
<path d="M134.107 84.444H142.615V86.9174H137.007V88.5056H142.082V90.8055H137.007V92.4718H142.693V94.9452H134.107V84.4353V84.444Z" fill="white"/>
<path d="M148.747 84.3746H151.577L156.084 94.9626H152.939L152.171 93.088H148.091L147.34 94.9626H144.257L148.764 84.3746H148.747ZM151.323 90.8142L150.144 87.8287L148.947 90.8142H151.323Z" fill="white"/>
<path d="M159.237 86.9956H156.066V84.444H165.343V86.9956H162.172V94.954H159.237V86.9956Z" fill="white"/>
</g>
<defs>
<filter id="filter0_d_139_203" x="22.7712" y="3.07261" width="141.694" height="62.1559" filterUnits="userSpaceOnUse" color-interpolation-filters="sRGB">
<feFlood flood-opacity="0" result="BackgroundImageFix"/>
<feColorMatrix in="SourceAlpha" type="matrix" values="0 0 0 0 0 0 0 0 0 0 0 0 0 0 0 0 0 0 127 0" result="hardAlpha"/>
<feOffset dx="3.63" dy="3.63"/>
<feGaussianBlur stdDeviation="4.21"/>
<feColorMatrix type="matrix" values="0 0 0 0 0 0 0 0 0 0 0 0 0 0 0 0 0 0 0.04 0"/>
<feBlend mode="normal" in2="BackgroundImageFix" result="effect1_dropShadow_139_203"/>
<feBlend mode="normal" in="SourceGraphic" in2="effect1_dropShadow_139_203" result="shape"/>
</filter>
<clipPath id="clip0_139_203">
<rect width="180" height="107" fill="white"/>
</clipPath>
</defs>
</svg>
