<svg width="11" height="12" viewBox="0 0 11 12" fill="none" xmlns="http://www.w3.org/2000/svg">
<path d="M9.16667 8.48193C8.70222 8.48193 8.28667 8.66265 7.96889 8.94578L3.61167 6.44578C3.64222 6.30723 3.66667 6.16867 3.66667 6.0241C3.66667 5.87952 3.64222 5.74096 3.61167 5.60241L7.92 3.12651C8.25 3.42771 8.68389 3.61446 9.16667 3.61446C10.1811 3.61446 11 2.80723 11 1.80723C11 0.807229 10.1811 0 9.16667 0C8.15222 0 7.33333 0.807229 7.33333 1.80723C7.33333 1.95181 7.35778 2.09036 7.38833 2.22892L3.08 4.70482C2.75 4.40361 2.31611 4.21687 1.83333 4.21687C0.818889 4.21687 0 5.0241 0 6.0241C0 7.0241 0.818889 7.83133 1.83333 7.83133C2.31611 7.83133 2.75 7.64458 3.08 7.34337L7.43111 9.8494C7.40056 9.9759 7.38222 10.1084 7.38222 10.241C7.38222 11.2108 8.18278 12 9.16667 12C10.1506 12 10.9511 11.2108 10.9511 10.241C10.9511 9.27108 10.1506 8.48193 9.16667 8.48193Z" fill="white"/>
</svg>
