<svg width="11" height="13" viewBox="0 0 11 13" fill="none" xmlns="http://www.w3.org/2000/svg">
<path d="M5.5 0C2.75 0 0 0.342105 0 2.73684V9.23684C0 10.5574 1.07938 11.6316 2.40625 11.6316L1.375 12.6579V13H2.90812L4.28312 11.6316H6.875L8.25 13H9.625V12.6579L8.59375 11.6316C9.92062 11.6316 11 10.5574 11 9.23684V2.73684C11 0.342105 8.53875 0 5.5 0ZM2.40625 10.2632C1.83563 10.2632 1.375 9.80474 1.375 9.23684C1.375 8.66895 1.83563 8.21053 2.40625 8.21053C2.97688 8.21053 3.4375 8.66895 3.4375 9.23684C3.4375 9.80474 2.97688 10.2632 2.40625 10.2632ZM4.8125 5.47368H1.375V2.73684H4.8125V5.47368ZM6.1875 5.47368V2.73684H9.625V5.47368H6.1875ZM8.59375 10.2632C8.02312 10.2632 7.5625 9.80474 7.5625 9.23684C7.5625 8.66895 8.02312 8.21053 8.59375 8.21053C9.16438 8.21053 9.625 8.66895 9.625 9.23684C9.625 9.80474 9.16438 10.2632 8.59375 10.2632Z" fill="#592E7C"/>
</svg>
