<svg width="183" height="66" viewBox="0 0 183 66" fill="none" xmlns="http://www.w3.org/2000/svg">
<path d="M30.7352 60.1674C25.2903 65.6279 21.3847 62.6954 21.5246 59.3205C25.4429 58.8907 28.6361 55.895 30.1628 52.3053C32.8343 46.0358 27.4912 44.8476 25.0994 46.276C20.5196 49.0188 18.6495 53.8979 18.3696 59.6997C12.0214 64.3639 6.06753 63.1631 5.43144 54.2013C5.07522 49.3096 5.68587 43.5836 13.3063 36.0122C16.4231 32.9028 17.8989 35.494 14.8329 41.3211C13.9424 43.0275 15.6216 44.5569 17.3391 42.0542C20.3924 37.5796 21.5373 33.2061 19.0947 31.1079C15.7361 28.8832 7.13616 31.6008 2.44179 43.4319C-3.39754 58.1702 5.81309 73.5026 19.0311 61.8232C20.6086 67.3722 27.4403 67.1573 31.4858 62.569C32.9107 60.9384 33.2542 57.6267 30.7352 60.1547V60.1674ZM26.1045 48.7408C28.598 47.0596 28.369 49.1452 27.7965 50.6115C26.8805 52.9373 25.4938 54.9344 22.9622 56.4891C19.1074 58.9034 24.0817 50.0806 26.1045 48.7408Z" fill="#F0F3F2"/>
<path d="M62.3869 50.3206C62.5268 43.773 63.481 37.5162 65.1857 31.5374C66.1144 28.2763 65.3384 26.8985 63.3283 28.251C59.0919 31.727 60.0715 43.9879 59.6899 54.0494C58.5831 58.0563 47.5405 65.5139 49.3343 59.8638C50.2121 57.1083 53.507 54.4539 53.8887 47.7926C54.0795 44.3671 50.9754 42.6986 47.8585 45.4289C43.9275 48.8796 43.6858 55.6673 45.0724 60.9003C41.2432 63.8328 37.6047 62.7584 36.4852 58.5492C33.6228 47.8178 39.4494 37.4909 41.6248 34.7607C43.4822 32.4222 45.3269 32.5866 44.4363 36.2143C43.4186 40.3476 41.5994 44.1017 38.7115 48.058C37.363 49.9034 39.6148 51.3823 41.434 49.1198C45.3014 44.3418 46.7136 40.436 47.7186 35.5443C49.0417 29.0347 43.6094 28.2763 41.0014 30.324C32.1597 37.276 25.2136 73.237 46.7644 63.403C50.581 67.7639 55.4535 64.1488 59.41 58.84L59.3591 63.5168C59.3209 66.3734 62.4887 65.9942 62.4123 63.5294C62.1325 55.3008 63.6973 52.9244 66.4833 51.1422C71.9665 47.6282 71.254 56.4889 64.944 61.4565C62.7049 63.2261 64.1298 65.476 66.4452 63.6558C69.6384 61.1531 72.3608 58.5492 73.7348 55.2881C77.8058 45.6817 67.2467 42.6481 62.3869 50.3079V50.3206ZM47.0189 58.8147C44.7671 51.0031 52.9982 41.4978 50.8482 50.6239C50.1994 53.3415 48.9653 55.819 47.0189 58.8147Z" fill="#F0F3F2"/>
<path d="M181.273 45.0367C179.568 43.5705 176.846 43.2671 174.683 44.3541C172.533 45.4412 170.828 49.0183 171.223 51.5211C170.777 52.9494 170.154 54.3145 169.34 55.5659C168.589 56.7288 167.622 58.2961 166.274 58.827C163.717 59.8129 163.182 57.2217 163.208 55.212C163.259 50.0548 160.612 46.7178 155.994 50.9143C156.223 45.8836 153.921 45.062 149.824 48.6138C145.906 51.6348 143.196 49.8526 138.909 48.1714C137.281 47.5394 136.772 48.993 137.929 50.1686C141.084 53.3159 140.754 56.3622 139.291 58.827C137.166 62.3662 132.357 61.4056 133.248 56.6024C133.706 54.1376 134.673 52.5196 135.589 50.1812C136.962 46.6799 133.629 45.3148 132.103 47.9439C130.411 50.8511 129.469 53.9985 129.215 57.2344C127.943 58.827 126.861 59.8256 125.984 60.3691C124.699 61.1654 123.821 60.9505 123.337 60.1542C122.778 58.1571 123.579 54.087 125.398 51.0534C128.63 45.6814 121.187 45.4159 120.411 56.7288C120.373 56.8046 120.348 56.8678 120.31 56.9563C118.732 61.1781 115.628 62.5938 113.465 60.4449C109.7 56.7035 111.392 46.9201 112.727 43.3429C115.412 42.4581 117.714 41.9273 120.297 42.2433C122.561 42.5087 123.337 40.2967 120.869 39.7658C117.88 39.1085 115.844 39.2602 113.961 39.3992C114.788 36.1255 115.437 33.7618 116.951 31.0315C118.872 27.5681 116.569 27.1005 115.323 29.1608C112.804 33.3067 111.9 35.9864 110.857 40.1197C106.85 41.0298 105.921 41.1183 103.122 42.3697C100.069 43.7348 101.863 46.781 105.298 45.517C107.359 44.7586 107.422 44.8345 109.789 44.0002C108.313 48.4369 106.761 55.0476 108.427 59.5475C108.466 59.6486 108.504 59.7497 108.542 59.8509C100.909 63.8198 99.6111 58.9534 100.718 54.3904C101.71 50.3835 99.3312 50.0169 97.83 52.6207C97.0286 53.9985 90.4132 62.48 91.0493 57.7779C91.3546 55.4774 93.4537 52.4817 95.8073 51.0913C96.7105 50.5604 98.7715 48.8287 97.054 47.9692C94.6368 46.7684 91.6981 48.854 91.6981 48.854C91.6981 48.854 91.1765 48.5254 90.9984 48.3358C89.8153 47.0465 87.8943 46.0479 86.1132 46.187C83.5179 46.3766 81.457 49.0057 80.3884 51.1166C80.1466 51.5843 79.6378 52.2921 79.7395 52.8483C79.536 51.7233 79.9176 50.295 79.8795 49.4228C79.7523 45.6434 76.0756 45.3148 76.4191 48.5506C76.7499 51.7865 76.928 57.0574 76.5463 62.3915C76.3937 64.3886 78.531 64.7299 79.1925 62.6696C79.9685 60.2553 79.8668 58.9281 81.0499 55.7302C82.0931 52.8862 85.3244 48.8793 89.4336 50.5478C89.7644 50.6868 89.8661 50.6995 89.599 50.9143C87.7161 52.4438 85.8206 57.5377 87.3218 60.7104C88.683 63.5923 93.3647 63.6934 97.7283 58.5237C98.5425 66.765 104.522 65.6653 109.407 61.8859C110.336 63.7061 111.621 65.185 113.847 65.5768C117.155 66.1456 119.126 63.8072 120.36 61.6078C120.488 61.8733 120.64 62.1387 120.818 62.3662C121.594 64.0853 123.299 64.9954 125.373 64.0221C125.373 64.0221 125.398 64.0221 125.411 64.0221C126.938 63.5797 127.981 62.5179 129.698 60.0025C133.337 69.1413 145.206 64.2749 143.311 53.3412C143.527 53.4297 143.743 53.5182 143.947 53.6067C143.947 53.6067 143.947 53.632 143.96 53.632C144.112 53.6952 144.265 53.7457 144.43 53.7963C144.901 53.9732 145.372 54.087 145.957 54.0617C147.242 54.1123 148.743 53.7331 150.371 52.4943C152.152 51.1419 152.839 51.1292 152.241 53.8342C151.847 55.6544 151.325 57.4492 150.778 59.2189C149.913 61.9618 152.356 63.251 153.577 60.9126C154.76 58.6374 155.524 56.5012 157.419 54.4156C158.997 52.6713 160.231 53.0252 159.951 55.1361C159.569 57.9549 160.32 61.8353 162.712 63.1626C164.963 64.4013 166.923 62.7581 168.322 61.0896C169.543 59.636 171.617 55.6796 172.355 53.8342C173.958 55.6291 176.667 56.9184 176.947 58.7259C177.125 59.8509 176.375 60.8115 175.204 60.8368C174.696 60.8494 174.492 60.6598 174.034 60.4702C173.538 60.2553 172.825 59.5728 172.228 59.8635C171.999 59.9773 171.833 60.2301 171.744 60.4829C171.426 61.3803 171.528 62.1893 171.859 62.9982C172.38 64.2496 173.652 64.831 174.899 65.0838C177.787 65.6653 180.624 63.3016 180.726 59.9141C180.764 58.7006 180.573 57.6768 179.581 56.299C178.754 55.1614 174.581 52.6587 175.077 50.2065C175.37 48.7655 176.757 47.8302 177.952 47.5268C179.415 47.1602 180.37 47.7922 180.84 49.1068C181.247 50.2571 182.278 50.0675 182.456 48.677C182.481 48.4622 182.494 48.2473 182.494 48.0324C182.494 46.8442 182.036 45.7825 181.247 45.1125L181.273 45.0367Z" fill="#F0F3F2"/>
<path d="M126.225 46.2126C127.536 46.9458 128.757 45.2646 128.922 44.1523C128.986 43.7605 128.91 43.3307 128.668 43.0147C128.223 42.4333 127.307 42.3574 126.683 42.724C126.302 42.9515 126.009 43.3054 125.818 43.7099C125.691 43.9627 125.615 44.2534 125.564 44.5315C125.462 45.1382 125.666 45.8966 126.238 46.2126H126.225Z" fill="#F0F3F2"/>
<path d="M126.594 12.274C125.933 12.1729 125.628 12.8807 124.534 14.4481C123.541 15.8764 121.506 18.278 120.628 17.7977C119.725 17.3174 120.323 15.434 120.908 14.1194C121.264 13.3105 121.493 12.4257 121.035 12.3498C120.564 12.2361 119.788 13.3105 119.279 14.6124C118.274 16.5716 116.481 18.4802 115.514 18.4929C114.979 18.4929 114.789 18.2527 114.776 17.785C114.75 15.9775 116.621 14.1194 116.608 13.1335C116.608 12.8175 116.468 12.5521 116.201 12.5647C115.717 12.5647 115.259 13.2978 114.102 13.3231C113.733 13.3231 113.364 13.2473 113.058 13.1461C113.313 12.1349 113.287 11.2122 112.473 11.2122C111.799 11.2122 111.315 11.781 111.328 12.7543C111.328 13.2473 111.595 13.6644 111.952 13.9677C111.239 16.2303 109.674 18.4929 108.377 18.2906C107.83 18.2022 107.397 17.2921 107.613 16.2177C108.542 15.2065 109.7 13.4495 109.165 12.8554C108.402 11.9959 106.558 14.5871 106.227 16.4958C105.387 17.7345 104.318 18.6572 103.492 18.417C103.084 18.2906 102.944 17.9494 102.944 17.4817C102.983 16.0028 103.759 15.1053 104.318 14.309C104.726 13.7276 105.209 12.8301 104.726 12.59C104.331 12.4004 103.695 12.7037 103.263 13.2725C103.25 13.2852 103.237 13.3105 103.224 13.3357C102.461 14.1953 101.138 14.9537 99.7004 15.4213C99.7259 15.2317 99.7259 15.0548 99.7259 14.8778C99.7004 13.1714 98.8099 11.9453 97.4614 11.4018C98.3519 9.79652 99.3951 8.24179 100.387 7.00307C101.965 6.45954 102.525 5.32194 102.512 4.8669C102.512 4.56353 102.359 4.34865 102.054 4.36129C101.367 4.36129 100.082 5.47362 99.0898 6.49746C98.3773 6.61122 97.6649 6.66178 96.8634 6.67442C93.4667 6.71234 91.4185 5.23346 90.2862 5.2461C89.7646 5.2461 89.5356 5.6253 89.5484 5.97922C89.5484 6.68706 90.3626 7.78675 90.388 10.0114C90.388 10.8456 90.2735 11.7936 90.0572 12.7669C89.6756 12.097 88.9886 11.781 88.0981 11.7936C86.228 11.8189 84.625 13.6897 83.9253 15.7626C83.1365 17.4058 82.2587 18.91 81.2664 18.9226C80.7321 18.9226 80.4777 18.5434 80.465 17.823C80.4522 16.1797 81.6354 14.0309 81.6226 12.7922C81.6226 11.7304 80.9993 11.0605 79.638 11.0732C78.1623 11.0858 76.0886 12.729 74.6638 14.7135C71.5851 18.417 67.2724 20.7428 63.2523 20.6543C60.1736 20.6164 57.8963 18.5434 57.8582 15.4466C57.7437 8.25443 64.5626 1.03696 72.1957 0.961116C74.6638 0.935836 76.3431 2.1872 76.4067 4.82898C76.4576 9.67012 71.2162 13.1714 67.7049 13.2093C66.0892 13.222 65.0969 12.2361 65.0842 10.7066C65.0588 8.10275 67.5777 5.95394 70.5037 4.85425C70.8218 4.77841 70.8981 4.42449 70.2875 4.42449C67.2469 4.60145 63.3795 7.98899 63.4176 11.1869C63.4431 13.5001 65.2623 14.486 67.2724 14.4607C71.8522 14.4101 78.1623 9.64484 78.1114 4.60145C78.086 2.21248 76.5848 -0.0374476 72.6028 0.000472614C63.2523 0.101593 55.3393 8.72211 55.4156 15.6615C55.4792 21.5644 60.6824 22.2975 62.9088 22.2723C67.0688 22.2217 71.038 19.8706 73.2898 17.4817C73.1626 17.9367 73.0863 18.3791 73.0863 18.8089C73.099 19.9844 73.7224 20.7555 74.8292 20.7428C76.1522 20.7302 77.7552 19.3903 78.8747 17.8482C78.7093 18.9226 79.1164 20.5153 80.5158 20.5027C81.7244 20.49 82.7931 19.2134 83.5691 17.9494C83.5691 17.9494 83.5691 17.9494 83.5691 17.962C83.5818 19.226 84.4087 20.3763 85.7318 20.3636C89.4593 20.3257 91.8765 14.17 91.8256 9.26564C91.8256 8.46931 91.7493 7.72355 91.6093 7.06627C93.2886 7.49603 95.0697 7.64771 96.5836 7.62243C97.1688 7.62243 97.7031 7.58451 98.1865 7.53395C97.4359 8.45667 96.6472 9.72068 95.9347 11.0732C95.8457 11.0732 95.7439 11.0732 95.6549 11.0732C93.9883 11.0858 92.6779 12.2613 92.6907 13.7023C92.6907 14.6124 93.2123 15.3076 93.9756 15.8132C93.7466 16.6474 93.6066 17.4058 93.6194 18.0252C93.6321 19.4535 94.3445 20.3257 95.5785 20.313C97.3087 20.2878 98.9498 18.3791 99.5223 16.382C100.489 16.1039 101.342 15.6741 102.054 15.2065C101.66 15.9775 101.392 16.7991 101.38 17.6207C101.354 18.4802 101.71 19.719 102.957 19.7569C103.924 19.7822 105.133 19.2639 106.252 17.8609C106.43 18.8089 106.99 19.3145 107.728 19.4535C109.929 19.8454 111.748 17.2921 112.651 14.4101C112.931 14.5239 113.236 14.5745 113.504 14.5745C113.822 14.5745 114.127 14.5239 114.407 14.4607C113.694 15.573 113.084 17.0898 113.097 18.2274C113.109 19.5041 113.86 19.858 114.725 19.8327C116.226 19.7822 117.626 18.4297 118.758 16.8118C118.758 16.875 118.758 16.9382 118.758 16.9887C118.758 18.0252 118.999 19.3271 120.068 19.4535C120.959 19.5546 122.002 18.9353 123.427 17.3174C123.694 17.0266 123.808 17.1278 123.618 17.5196C122.523 19.6684 120.755 22.9169 120.73 24.7876C120.73 25.4196 120.971 25.8494 121.442 25.9884C121.722 26.0643 121.976 26.0264 122.027 25.8747C122.091 25.723 122.002 25.4702 122.002 25.1036C121.989 23.4731 122.994 20.9577 126.213 14.802C126.671 13.9425 127.231 12.4383 126.556 12.3245L126.594 12.274ZM75.6561 19.0617C75.2235 19.0617 74.9055 18.8215 74.8928 18.2527C74.8673 16.4326 78.0096 11.958 79.5871 11.9327C80.0578 11.9327 80.1978 12.1728 80.2105 12.6405C80.236 14.486 77.2336 19.0364 75.6688 19.0617H75.6561ZM86.0753 19.1249C85.4138 19.1249 85.1084 18.4676 85.1084 17.6713C85.083 15.6615 86.5714 12.9692 88.3525 12.9565C88.8741 12.9565 89.4975 13.1841 89.8155 13.8919C89.0013 16.5969 87.5383 19.0996 86.088 19.1249H86.0753ZM98.3392 14.7514C98.3392 15.0674 98.301 15.4087 98.2247 15.75C97.843 15.8132 97.4741 15.8511 97.1052 15.8511C96.5581 15.8511 96.0238 15.7879 95.5531 15.6362C95.8839 14.5997 96.3927 13.4621 96.9779 12.3245C97.7794 12.8049 98.3137 13.6644 98.3265 14.7514H98.3392ZM93.8102 13.677C93.8102 12.7922 94.5099 11.9327 95.464 11.9327C95.4768 11.9327 95.4895 11.9327 95.5022 11.9327C95.0188 12.9186 94.5989 13.9298 94.2809 14.8652C93.9883 14.5492 93.8102 14.1447 93.8102 13.677ZM95.7566 19.1375C95.1969 19.1375 95.1078 18.6066 95.0951 18.101C95.0951 17.5954 95.1842 17.014 95.3495 16.3694C96.0238 16.5716 96.7744 16.6601 97.4995 16.6601C97.6649 16.6601 97.8176 16.6601 97.9702 16.6348C97.4995 17.9494 96.6217 19.1375 95.7439 19.1502L95.7566 19.1375Z" fill="#F0F3F2"/>
</svg>
