<svg width="141" height="34" viewBox="0 0 141 34" fill="none" xmlns="http://www.w3.org/2000/svg">
<g clip-path="url(#clip0_139_232)">
<path d="M15.0379 22.5606C14.3846 23.1574 13.441 23.3571 12.8513 23.4327C11.6483 23.584 10.4029 23.1812 9.60933 22.217C8.95685 21.4288 8.62246 20.4087 7.98548 19.5925C6.97985 18.3012 5.3715 17.4554 3.71584 17.7537C0.442044 18.3521 -1.04397 22.1998 0.80743 24.8687C3.45322 28.6827 9.40217 28.0226 12.4558 25.38C13.4067 24.558 14.2941 23.644 15.0387 22.5606" fill="white"/>
<path d="M125.964 22.5598C126.618 23.1582 127.558 23.3571 128.151 23.4327C129.354 23.5848 130.6 23.1829 131.392 22.2179C132.044 21.4288 132.381 20.4095 133.016 19.5933C134.023 18.302 135.631 17.4554 137.287 17.7546C140.559 18.353 142.045 22.2006 140.193 24.8695C137.548 28.6827 131.599 28.0234 128.548 25.3808C127.597 24.5588 126.708 23.644 125.964 22.5598Z" fill="white"/>
<path d="M115.062 2.21932C114.98 2.21604 107.167 2.21604 107.094 2.21932C106.238 2.24563 105.53 3.04458 105.489 3.86655C105.446 4.74031 106.199 5.60667 107.094 5.64941C107.177 5.6527 114.99 5.6527 115.062 5.64941C115.92 5.62393 116.628 4.82415 116.668 4.00218C116.712 3.1276 115.958 2.26371 115.062 2.21932Z" fill="white"/>
<path d="M65.2998 19.3311C65.1905 18.8757 65.1326 18.4269 65.1007 17.9748C65.095 17.3214 65.095 16.4057 65.095 15.5615C65.1766 12.6485 65.7165 7.52267 61.7951 7.52267C59.1469 7.52267 57.5785 9.76829 57.134 10.5023C57.0704 8.45561 55.4686 6.96948 53.0202 6.96948C51.4583 6.96948 50.5302 8.22217 50.5302 8.22217C50.5302 8.22217 52.0537 8.7548 52.0537 10.8179C52.07 12.295 52.0504 19.4881 52.0537 19.5185C52.1132 20.7934 52.9973 21.9885 54.5779 21.9885C56.1586 21.9885 57.1397 20.7638 57.1397 19.5169V13.1376C57.3599 12.0945 57.9423 11.03 58.8199 11.03C59.9584 11.03 60.022 12.3057 60.0278 12.3057L60.022 18.4812C60.0278 18.6817 60.053 18.8749 60.0873 19.064C60.1436 19.3853 60.2406 19.6854 60.3793 19.9599C60.9869 21.2036 62.3302 22.0148 64.1359 22.0148C65.6969 22.0148 66.6243 20.763 66.6243 20.763C66.6243 20.763 65.7084 20.4375 65.2981 19.3303" fill="white"/>
<path d="M102.99 19.3311C102.88 18.8757 102.82 18.4269 102.791 17.9749L102.795 2.69113C102.796 1.20501 101.6 0 100.125 0C98.6494 0 97.4546 1.20501 97.4546 2.69113L97.4579 16.2265C97.4709 17.4455 97.3526 18.6916 97.9236 19.812C98.5279 21.0564 100.02 22.0157 101.825 22.0157C103.39 22.0157 104.315 20.7638 104.315 20.7638C104.315 20.7638 103.401 20.4383 102.989 19.3311" fill="white"/>
<path d="M43.313 7.39035C39.3051 7.39035 36.0566 10.6634 36.0566 14.7034C36.0566 18.7434 39.3051 22.0157 43.313 22.0157C47.3208 22.0157 50.5693 18.7418 50.5693 14.7034C50.5693 10.6651 47.3192 7.39035 43.313 7.39035ZM43.3668 18.9094V18.9127C43.3603 18.9127 43.3562 18.9111 43.3505 18.9111C43.3448 18.9111 43.3407 18.9127 43.3358 18.9127V18.9094C41.9656 18.884 41.2789 17.2976 41.2789 14.7034C41.2789 12.1093 42.1491 10.5237 43.3358 10.4958C43.3407 10.4958 43.3456 10.4958 43.3505 10.4958C43.3562 10.4958 43.3603 10.4958 43.3668 10.4958C44.5518 10.5245 45.4229 12.1134 45.4229 14.7042C45.4229 17.2951 44.7378 18.8848 43.3668 18.9103" fill="white"/>
<path d="M81.6206 19.3311C81.5097 18.8757 81.451 18.4269 81.4216 17.9749L81.4257 2.69195C81.4257 1.20583 80.23 0 78.7555 0C77.2809 0 76.0844 1.20501 76.0844 2.69195L76.0738 9.93023C75.4311 9.02935 74.0168 7.50624 71.7878 7.50624C65.6546 7.50624 65.2671 18.5132 69.4732 21.2356C70.659 22.0025 72.4468 22.1998 73.7999 21.8455C74.7346 21.5997 76.2067 20.675 76.4441 19.5703C76.4783 19.6509 76.5142 19.7322 76.555 19.8128C77.1602 21.0572 78.6527 22.0157 80.456 22.0157C82.0203 22.0157 82.9468 20.7638 82.9468 20.7638C82.9468 20.7638 82.0325 20.4383 81.6206 19.3311ZM73.6621 18.4417V18.4442C73.6564 18.4442 73.6523 18.4442 73.6474 18.4442C73.6417 18.4442 73.6384 18.4442 73.6311 18.4442V18.4417C72.2609 18.4212 71.575 17.037 71.575 14.7774C71.575 12.5178 72.4436 11.1369 73.6311 11.1114V11.1098C73.6376 11.1098 73.6409 11.1114 73.6474 11.1114C73.6531 11.1114 73.6564 11.1098 73.6621 11.1098V11.1114C74.8496 11.1369 75.719 12.5194 75.719 14.7774C75.719 17.0353 75.0314 18.4212 73.6621 18.4417Z" fill="white"/>
<path d="M95.5159 17.4907C95.5159 17.4907 94.7329 18.5724 91.694 18.5724C88.6551 18.5724 88.0035 16.192 88.0035 16.192C92.4313 16.192 96.1456 15.8936 96.1456 12.2802C96.1456 8.66687 92.0937 7.47583 89.6909 7.47583C85.7239 7.47583 82.8261 10.6643 82.8261 14.8727C82.8261 19.6122 86.6006 22.0165 89.7333 22.0165C95.2508 22.0165 95.5159 17.4915 95.5159 17.4915M87.7156 13.8732C87.8713 12.72 88.1454 11.2668 89.1747 10.5936C90.0294 10.0338 91.2267 10.6708 91.2446 11.7484C91.2642 12.886 90.5343 13.662 89.518 13.8765C89.4104 13.9004 87.7009 13.9858 87.7156 13.8732Z" fill="white"/>
<path d="M116.88 17.4907C116.88 17.4907 116.097 18.5724 113.059 18.5724C110.02 18.5724 109.368 16.192 109.368 16.192C113.796 16.192 117.51 15.8936 117.51 12.2802C117.51 8.66687 113.458 7.47583 111.055 7.47583C107.088 7.47583 104.191 10.6643 104.191 14.8727C104.191 19.6122 107.965 22.0165 111.098 22.0165C116.615 22.0165 116.88 17.4915 116.88 17.4915M109.081 13.8732C109.237 12.72 109.511 11.2668 110.54 10.5936C111.395 10.0338 112.592 10.6708 112.61 11.7484C112.63 12.886 111.9 13.662 110.883 13.8765C110.776 13.9004 109.066 13.9858 109.081 13.8732Z" fill="white"/>
<path d="M126.901 17.882H123.858C124.082 17.882 126.333 15.9692 127.079 15.3314C129.034 13.6595 132.549 11.247 131.524 8.12271L131.527 8.14408C131.339 7.4002 130.77 6.97113 130.77 6.97113C130.77 6.97113 130.557 7.57857 129.834 7.85064C129.539 7.92297 129.244 7.97722 128.95 7.99448C128.707 7.99942 120.445 7.99448 120.445 7.99448C119.327 7.99284 118.391 8.89865 118.375 9.96721C118.362 11.0448 119.246 11.9087 120.378 11.9235L125.199 11.9547C122.964 13.2107 120.296 14.6977 118.941 16.9679C118.168 18.2716 117.34 20.2805 117.654 21.8217C118.725 20.8657 121.536 19.9394 123.675 20.389C124.476 20.5575 125.328 20.9693 126.02 21.4058C130.032 23.935 132.444 18.9883 130.525 16.8077C130.525 16.8077 129.432 17.8803 126.901 17.8803" fill="white"/>
<path d="M36.4497 20.9586C33.9883 18.2387 33.2192 13.7162 33.0675 10.7103C32.937 8.11367 33.0764 3.61584 35.1073 2.30727C34.4271 1.44584 33.0862 1.09897 32.0675 1.09897C29.7782 1.09897 28.6747 2.63605 27.8917 3.74078C27.6332 4.10574 23.7827 9.45841 23.7827 9.45841C23.7827 9.45841 20.5448 4.40987 20.1468 3.80325C19.5971 2.96649 18.567 1.42858 16.7572 1.16226C15.9775 1.04718 13.9556 0.943616 12.8554 2.46591C14.7525 3.99559 14.7052 7.89091 14.2933 10.55C13.0577 18.533 9.68762 19.2686 9.68762 19.2686C11.4142 23.9678 15.86 22.111 17.1169 18.3645C17.9308 15.9298 18.4561 12.8466 18.5776 10.2902L23.4565 17.8335C23.4565 17.8335 28.9813 10.3133 28.9813 10.3207C28.0711 23.6193 32.6034 27.3889 36.5655 27.3889C40.5277 27.3889 41.8816 23.7336 41.8816 23.7336C39.7366 23.6029 37.8599 22.5162 36.4505 20.9586" fill="white"/>
<path d="M48.8264 25.2838C48.8737 25.4794 48.899 25.6718 48.912 25.8641C48.912 25.9233 48.9088 32.8213 48.912 32.9043C48.9292 33.4838 49.4609 33.9614 50.009 33.9893C50.5905 34.0189 51.1663 33.5093 51.1949 32.9043C51.1973 32.8254 51.1949 26.6121 51.1949 26.6121C51.19 26.0902 51.2397 25.5575 50.9967 25.0775C50.7373 24.5449 50.0987 24.1347 49.3272 24.1347C48.6568 24.1347 48.2604 24.6706 48.2604 24.6706C48.2604 24.6706 48.6519 24.8095 48.828 25.283" fill="white"/>
<path d="M121.192 32.8418C121.145 32.6462 121.12 32.4547 121.107 32.2607C121.107 32.2024 121.11 25.3036 121.108 25.2214C121.09 24.641 120.558 24.1627 120.011 24.1355C119.429 24.1059 118.853 24.6156 118.825 25.2214C118.822 25.3003 118.825 31.5127 118.825 31.5127C118.831 32.0339 118.78 32.5673 119.023 33.0473C119.282 33.58 119.921 33.9901 120.693 33.9901C121.363 33.9901 121.759 33.4542 121.759 33.4542C121.759 33.4542 121.369 33.3145 121.192 32.841" fill="white"/>
<path d="M79.8891 27.707C78.7024 27.707 77.9994 28.7131 77.8004 29.0419L77.7939 29.0468C77.7939 28.7147 77.7931 28.4509 77.7931 28.4377C77.7751 27.859 77.2433 27.4259 76.6969 27.3987C76.1162 27.3691 75.5396 27.8336 75.511 28.4377C75.5094 28.5166 75.5094 32.8418 75.511 32.9002C75.5281 33.4789 76.0607 33.9572 76.6072 33.9844C77.1887 34.014 77.7637 33.5043 77.7931 32.9002C77.7939 32.855 77.7947 31.4437 77.7947 30.228L77.8037 30.2222C77.9023 29.7553 78.1625 29.2778 78.5564 29.2778C79.0662 29.2778 79.0947 29.8499 79.0972 29.8499L79.0923 32.9002C79.1094 33.4789 79.642 33.9572 80.1885 33.9844C80.77 34.014 81.345 33.5043 81.3743 32.9002L81.3711 31.3056C81.3711 29.6666 81.5407 27.6988 79.8891 27.7062" fill="white"/>
<path d="M109.065 27.707C107.878 27.707 107.175 28.7131 106.976 29.0419L106.969 29.0468C106.969 28.7147 106.968 28.4509 106.968 28.4377C106.951 27.859 106.419 27.4259 105.872 27.3987C105.292 27.3691 104.715 27.8336 104.686 28.4377C104.685 28.5166 104.685 32.8418 104.686 32.9002C104.704 33.4789 105.236 33.9572 105.783 33.9844C106.364 34.014 106.939 33.5043 106.968 32.9002C106.969 32.855 106.97 31.4437 106.97 30.228L106.979 30.2222C107.078 29.7553 107.338 29.2778 107.732 29.2778C108.242 29.2778 108.27 29.8499 108.273 29.8499L108.268 32.9002C108.285 33.4789 108.817 33.9572 109.364 33.9844C109.945 34.014 110.52 33.5043 110.55 32.9002L110.547 31.3056C110.547 29.6666 110.716 27.6988 109.065 27.7062" fill="white"/>
<path d="M56.7148 27.707C55.5281 27.707 54.8251 28.7131 54.6261 29.0419L54.6195 29.0468C54.6195 28.7147 54.6179 28.4509 54.6179 28.4377C54.6008 27.859 54.0682 27.4259 53.5218 27.3987C52.941 27.3691 52.3644 27.8336 52.3359 28.4377C52.3342 28.5166 52.3342 32.8418 52.3359 32.9002C52.3538 33.4789 52.8856 33.9572 53.4329 33.9844C54.0136 34.014 54.5894 33.5043 54.6187 32.9002C54.6204 32.855 54.6204 31.4437 54.6204 30.228L54.6293 30.2222C54.728 29.7553 54.9882 29.2778 55.3829 29.2778C55.8927 29.2778 55.9212 29.8499 55.9237 29.8499L55.918 32.9002C55.9351 33.4789 56.4677 33.9572 57.0141 33.9844C57.5956 34.014 58.1715 33.5043 58.2 32.9002L58.1967 31.3056C58.1967 29.6666 58.3664 27.6988 56.7148 27.7062" fill="white"/>
<path d="M100.791 27.4177C98.9953 27.4177 97.5402 28.8832 97.5402 30.694C97.5402 32.5048 98.9961 33.9696 100.791 33.9696C102.586 33.9696 104.042 32.504 104.042 30.694C104.042 28.8841 102.586 27.4177 100.791 27.4177ZM100.815 32.5788V32.5805C100.815 32.5805 100.809 32.5805 100.807 32.5805C100.804 32.5805 100.802 32.5805 100.801 32.5805V32.5788C100.186 32.5665 99.8794 31.8571 99.8794 30.6949C99.8794 29.5326 100.269 28.8224 100.801 28.8101C100.801 28.8101 100.804 28.8101 100.807 28.8101C100.809 28.8101 100.811 28.8101 100.815 28.8101C101.346 28.8232 101.735 29.5342 101.735 30.6957C101.735 31.8571 101.428 32.5681 100.815 32.5796" fill="white"/>
<path d="M88.6511 28.358C88.6323 27.7514 88.0663 27.25 87.4937 27.2212C86.8845 27.1908 86.281 27.7243 86.2508 28.358C86.2508 28.4016 86.2451 28.4961 86.2451 28.5133C85.9563 28.1089 85.3234 27.4275 84.3243 27.4275C81.5766 27.4275 81.4029 32.3593 83.2869 33.5792C83.8187 33.9227 84.6196 34.0107 85.2264 33.852C85.5689 33.7616 86.0738 33.4674 86.303 33.0917C86.4441 33.5759 86.9204 33.9449 87.4089 33.9696C88.0182 34 88.6209 33.4674 88.6519 32.8336C88.6543 32.7514 88.6535 28.4147 88.6519 28.3588M85.1636 32.3273C85.1636 32.3273 85.1595 32.3273 85.1571 32.3273H85.1489C84.5348 32.3174 84.2281 31.6968 84.2281 30.6842C84.2281 29.6715 84.6171 29.0534 85.1489 29.0419C85.1489 29.0419 85.1538 29.0419 85.1571 29.0419C85.1587 29.0419 85.1611 29.0419 85.1636 29.0419C85.6954 29.0542 86.086 29.674 86.086 30.6842C86.086 31.6944 85.7777 32.3174 85.1636 32.3265" fill="white"/>
<path d="M117.803 28.358C117.785 27.7514 117.219 27.25 116.646 27.2212C116.037 27.1908 115.434 27.7243 115.403 28.358C115.403 28.4016 115.397 28.4961 115.397 28.5133C115.109 28.1089 114.475 27.4275 113.476 27.4275C110.728 27.4275 110.555 32.3593 112.439 33.5792C112.97 33.9227 113.771 34.0107 114.377 33.852C114.72 33.7616 115.226 33.4674 115.455 33.0917C115.595 33.5759 116.071 33.9449 116.56 33.9696C117.169 34 117.772 33.4674 117.802 32.8336C117.805 32.7514 117.803 28.4147 117.802 28.3588M114.316 32.3273C114.316 32.3273 114.312 32.3273 114.31 32.3273H114.302C113.689 32.3174 113.381 31.6968 113.381 30.6842C113.381 29.6715 113.771 29.0534 114.302 29.0419C114.302 29.0419 114.307 29.0419 114.31 29.0419C114.312 29.0419 114.314 29.0419 114.316 29.0419C114.848 29.0542 115.238 29.674 115.238 30.6842C115.238 31.6944 114.93 32.3174 114.316 32.3265" fill="white"/>
<path d="M96.8233 28.9753C96.7964 28.404 96.3503 27.9552 95.7891 27.9075C95.7549 27.9042 95.7247 27.8977 95.6921 27.8977C95.1832 27.8977 94.5437 28.3407 94.5437 28.9005L94.547 31.022H94.5437C94.5511 31.6837 94.5429 32.8788 94.5437 32.892C94.5706 33.4632 95.0168 33.912 95.5771 33.9597C95.6113 33.9638 95.6415 33.9696 95.6742 33.9696C96.1823 33.9696 96.8225 33.5265 96.8225 32.9668L96.8201 31.1946H96.8225C96.8143 30.5321 96.8233 28.9884 96.8225 28.9745" fill="white"/>
<path d="M96.8152 26.1066C96.8152 26.7363 96.3087 27.2459 95.6839 27.2459C95.0592 27.2459 94.5527 26.7363 94.5527 26.1066C94.5527 25.477 95.0584 24.9657 95.6839 24.9657C96.3095 24.9657 96.8152 25.4762 96.8152 26.1066Z" fill="white"/>
<path d="M73.693 27.6273C73.0153 27.6552 72.6801 28.164 72.2184 28.8035C72.2152 28.8084 72.2193 28.5084 72.2184 28.4969C72.2005 27.9182 71.6696 27.4398 71.1231 27.4119C70.5408 27.3823 69.9658 27.8919 69.9364 28.4969V32.9142H69.9348C69.9519 33.4937 70.4837 33.9721 71.0309 33.9992C71.6068 34.0279 72.1769 33.5282 72.2152 32.9314H72.2201V30.1334C72.2543 29.7233 72.4313 29.2112 72.7592 29.2128C73.2224 29.217 72.7437 30.3455 73.8056 30.3455C75.3291 30.3455 75.4922 27.5525 73.6922 27.6273" fill="white"/>
<path d="M69.0385 31.9401C69.0385 31.9401 68.6869 32.4251 67.3249 32.4251C65.9629 32.4251 65.6684 31.3573 65.6684 31.3573C67.6552 31.3573 69.3215 31.2234 69.3215 29.6016C69.3215 27.9799 67.5035 27.4464 66.4261 27.4464C64.6465 27.4464 63.3456 28.8766 63.3456 30.7647C63.3456 32.8911 65.0388 33.9687 66.4441 33.9687C68.9194 33.9687 69.0376 31.9393 69.0376 31.9393M65.5387 30.3167C65.6089 29.7989 65.732 29.1471 66.1945 28.8454C66.5778 28.5947 67.1145 28.8808 67.1234 29.3632C67.1324 29.8737 66.8045 30.2214 66.3486 30.3184C66.3005 30.3282 65.5322 30.3669 65.5396 30.3167" fill="white"/>
<path d="M63.2078 32.7588C63.2078 32.7588 62.614 33.9696 61.517 33.9696C60.6142 33.9696 59.5033 33.1657 59.4568 32.0026C59.456 31.9919 59.4503 30.3176 59.4462 28.9186H59.1396C58.9789 28.9186 58.6959 28.8224 58.6959 28.4024C58.6959 27.9823 59.0148 27.8936 59.1722 27.8936H59.443C59.4413 27.4045 59.4413 27.0683 59.4422 27.0469C59.4707 26.4436 60.0457 25.9356 60.6256 25.9652C61.1712 25.9923 61.7152 26.4691 61.7324 27.0469V27.8927H62.6988C62.8326 27.8927 63.1425 27.9807 63.1425 28.4089C63.1425 28.8372 62.8326 28.9194 62.6654 28.9194H61.7324V31.4889C61.7324 32.3223 62.4452 32.7555 63.2102 32.758" fill="white"/>
<path d="M93.7436 32.7588C93.7436 32.7588 93.1499 33.9696 92.0537 33.9696C91.1509 33.9696 90.0392 33.1657 89.9935 32.0026C89.9927 31.9919 89.987 30.3176 89.9829 28.9186H89.6763C89.5156 28.9186 89.2326 28.8224 89.2326 28.4024C89.2326 27.9823 89.5515 27.8936 89.7089 27.8936H89.9797C89.978 27.4045 89.978 27.0683 89.9788 27.0469C90.0082 26.4436 90.5824 25.9356 91.1623 25.9652C91.7079 25.9923 92.2519 26.4691 92.269 27.0469V27.8927H93.2355C93.3693 27.8927 93.6792 27.9807 93.6792 28.4089C93.6792 28.8372 93.3693 28.9194 93.2021 28.9194H92.269V31.4889C92.269 32.3223 92.9819 32.7555 93.7469 32.758" fill="white"/>
</g>
<defs>
<clipPath id="clip0_139_232">
<rect width="141" height="34" fill="white"/>
</clipPath>
</defs>
</svg>
